<svg xmlns="http://www.w3.org/2000/svg" viewBox="0 0 512 512">
  <rect width="512" height="512" rx="96" fill="#f5f5f4"/>
  <ellipse cx="256" cy="422" rx="60" ry="8" fill="#e7e5e4"/>
  <path d="M245 92 L245 148 C222 168 214 196 214 224 L214 394 C214 412 226 418 244 418 L268 418 C286 418 298 412 298 394 L298 224 C298 196 290 168 267 148 L267 92 Z" fill="#2d2926"/>
  <path d="M221 224 C221 199 227 175 245 156 L245 152 L249 152 L249 156 C231 175 225 199 225 224 L225 394 C225 406 229 410 236 413 L232 413 C223 410 221 406 221 394 Z" fill="rgba(255,255,255,0.08)"/>
  <rect x="240" y="72" width="32" height="26" rx="5" fill="#7f1d1d"/>
  <rect x="233" y="268" width="46" height="64" rx="3" fill="rgba(80,80,80,0.35)"/>
  <line x1="243" y1="290" x2="269" y2="290" stroke="rgba(180,180,180,0.4)" stroke-width="1.5"/>
  <line x1="243" y1="302" x2="269" y2="302" stroke="rgba(140,70,70,0.45)" stroke-width="1.5"/>
  <line x1="243" y1="314" x2="269" y2="314" stroke="rgba(180,180,180,0.4)" stroke-width="1.5"/>
</svg>
