<svg xmlns="http://www.w3.org/2000/svg" viewBox="0 0 1024 1024">
  <defs>
    <linearGradient id="bg" x1="0" y1="0" x2="0" y2="1">
      <stop offset="0%" stop-color="#ffffff"/>
      <stop offset="100%" stop-color="#f5f5f4"/>
    </linearGradient>
    <linearGradient id="shine" x1="0" y1="0" x2="1" y2="0">
      <stop offset="0%" stop-color="rgba(255,255,255,0.35)"/>
      <stop offset="100%" stop-color="rgba(255,255,255,0)"/>
    </linearGradient>
  </defs>
  <rect width="1024" height="1024" rx="224" fill="url(#bg)"/>
  <g transform="translate(512, 512)">
    <!-- Single continuous bottle path -->
    <path d="
      M -16 -300
      L -16 -200
      C -16 -185 -30 -170 -55 -155
      C -80 -140 -90 -120 -90 -100
      L -90 260
      C -90 280 -75 290 -55 290
      L 55 290
      C 75 290 90 280 90 260
      L 90 -100
      C 90 -120 80 -140 55 -155
      C 30 -170 16 -185 16 -200
      L 16 -300
      Z"
      fill="#292524" stroke="#44403c" stroke-width="3"/>
    <!-- Highlight -->
    <rect x="-82" y="-100" width="16" height="360" rx="5" fill="url(#shine)" opacity="0.7"/>
    <!-- Capsule -->
    <rect x="-22" y="-325" width="44" height="45" rx="5" fill="#7f1d1d"/>
    <rect x="-22" y="-325" width="44" height="6" rx="3" fill="#991b1b"/>
    <!-- Lip ring -->
    <rect x="-20" y="-282" width="40" height="6" rx="3" fill="#57534e"/>
    <!-- Label -->
    <rect x="-60" y="10" width="120" height="120" rx="3" fill="#fafaf9" opacity="0.12"/>
    <rect x="-38" y="35" width="76" height="3" rx="1.5" fill="#d6d3d1" opacity="0.4"/>
    <rect x="-28" y="48" width="56" height="2" rx="1" fill="#d6d3d1" opacity="0.3"/>
    <rect x="-44" y="75" width="88" height="2" rx="1" fill="#7f1d1d" opacity="0.7"/>
    <rect x="-24" y="92" width="48" height="2" rx="1" fill="#d6d3d1" opacity="0.25"/>
  </g>
</svg>
